M48
; DRILL file {KiCad 7.0.8} date Mon May 13 00:37:04 2024
; FORMAT={-:-/ absolute / inch / decimal}
; #@! TF.CreationDate,2024-05-13T00:37:04+01:00
; #@! TF.GenerationSoftware,Kicad,Pcbnew,7.0.8
; #@! TF.FileFunction,Plated,1,4,PTH
FMAT,2
INCH
; #@! TA.AperFunction,Plated,PTH,ViaDrill
T1C0.0118
; #@! TA.AperFunction,Plated,PTH,ViaDrill
T2C0.0157
; #@! TA.AperFunction,Plated,PTH,ComponentDrill
T3C0.0300
; #@! TA.AperFunction,Plated,PTH,ComponentDrill
T4C0.0315
; #@! TA.AperFunction,Plated,PTH,ComponentDrill
T5C0.0362
; #@! TA.AperFunction,Plated,PTH,ComponentDrill
T6C0.0394
; #@! TA.AperFunction,Plated,PTH,ComponentDrill
T7C0.0433
; #@! TA.AperFunction,Plated,PTH,ComponentDrill
T8C0.0453
; #@! TA.AperFunction,Plated,PTH,ComponentDrill
T9C0.0701
; #@! TA.AperFunction,Plated,PTH,ComponentDrill
T10C0.0866
; #@! TA.AperFunction,Plated,PTH,ComponentDrill
T11C0.0917
; #@! TA.AperFunction,Plated,PTH,ComponentDrill
T12C0.1575
%
G90
G05
T1
X2.8898Y-3.2732
X2.9291Y-3.2732
X2.9606Y-3.2732
X2.9961Y-3.2693
X5.815Y-2.7732
X5.815Y-2.7969
X5.815Y-2.8205
X5.815Y-2.8441
X5.8228Y-2.7496
X5.8465Y-2.7457
X5.8583Y-2.8835
X5.8701Y-2.7457
X5.874Y-2.1236
X5.874Y-2.1472
X5.874Y-2.1787
X5.878Y-2.0961
X5.8819Y-2.8835
X5.8976Y-2.0803
X5.9173Y-2.2181
X5.9213Y-2.0803
X5.9409Y-2.2181
X5.9449Y-2.0803
X6.1693Y-2.7693
X6.1693Y-2.7929
X6.1693Y-2.8165
X6.1693Y-2.8402
X6.185Y-2.7496
X6.2087Y-2.7496
X6.2126Y-2.8874
X6.2244Y-2.0961
X6.2244Y-2.1197
X6.2244Y-2.1433
X6.2244Y-2.1709
X6.2323Y-2.7496
X6.2362Y-2.0764
X6.2362Y-2.8874
X6.2598Y-2.0724
X6.2638Y-2.2142
X6.2835Y-2.0724
X6.2874Y-2.2142
X6.3071Y-2.0724
X6.4882Y-2.7693
X6.4882Y-2.7929
X6.4882Y-2.8165
X6.4882Y-2.8402
X6.5039Y-2.7496
X6.5276Y-2.7496
X6.5315Y-2.8874
X6.5512Y-2.7496
X6.5551Y-2.8874
X6.563Y-2.0921
X6.563Y-2.1157
X6.563Y-2.1394
X6.563Y-2.163
X6.5748Y-2.0724
X6.5984Y-2.0685
X6.5984Y-2.2063
X6.622Y-2.0685
X6.622Y-2.2063
X6.8386Y-2.7693
X6.8386Y-2.7929
X6.8386Y-2.8165
X6.8386Y-2.8402
X6.8543Y-2.7496
X6.878Y-2.7496
X6.878Y-2.8874
X6.9016Y-2.7496
X6.9016Y-2.8874
X6.9173Y-2.1157
X6.9173Y-2.1394
X6.9173Y-2.163
X6.9213Y-2.0921
X6.937Y-2.0724
X6.9567Y-2.2102
X6.9606Y-2.0724
X6.9803Y-2.2102
X6.9843Y-2.0724
T2
X2.3085Y-4.7371
X2.3089Y-5.4066
X2.3101Y-5.046
X2.3151Y-4.43
X2.3155Y-2.077
X2.3187Y-2.3541
X2.3187Y-2.9552
X2.3204Y-3.2359
X2.3204Y-3.586
X2.3237Y-2.6926
X2.3245Y-1.6952
X2.3336Y-4.0088
X2.3792Y-1.4995
X2.4125Y-2.7925
X2.4137Y-2.2112
X2.4157Y-1.6302
X2.416Y-2.5122
X2.416Y-3.0832
X2.416Y-3.4799
X2.4182Y-1.8613
X2.4208Y-5.5249
X2.4422Y-3.2968
X2.4438Y-3.7093
X2.4741Y-2.3559
X2.4741Y-2.534
X2.4775Y-2.6549
X2.4775Y-2.9666
X2.4785Y-2.2419
X2.4819Y-2.8355
X2.4819Y-3.1496
X2.4848Y-3.2969
X2.4848Y-2.0584
X2.4977Y-1.3833
X2.5119Y-1.945
X2.5129Y-1.536
X2.5143Y-5.6342
X2.5161Y-3.4196
X2.5172Y-1.7284
X2.5288Y-3.2969
X2.5509Y-1.2716
X2.5623Y-3.8172
X2.563Y-4.0409
X2.5641Y-3.5674
X2.5763Y-5.3523
X2.5811Y-5.6276
X2.6173Y-5.4526
X2.6459Y-1.1675
X2.6553Y-5.5455
X2.6654Y-2.6423
X2.6675Y-2.3334
X2.6675Y-2.8523
X2.668Y-2.9699
X2.6683Y-2.795
X2.6683Y-2.7343
X2.6696Y-2.1327
X2.6697Y-2.442
X2.6697Y-2.5029
X2.6697Y-3.0248
X2.6705Y-2.0405
X2.6712Y-3.0923
X2.6713Y-2.2554
X2.6719Y-2.5587
X2.6719Y-3.1474
X2.6719Y-3.2031
X2.6722Y-3.4299
X2.6771Y-4.3914
X2.6927Y-4.033
X2.7087Y-4.226
X2.7323Y-2.1591
X2.7323Y-2.2024
X2.7323Y-2.2496
X2.7348Y-1.0786
X2.7424Y-3.7761
X2.7444Y-1.5012
X2.7451Y-1.3069
X2.748Y-3.915
X2.7788Y-5.6591
X2.7835Y-2.5606
X2.786Y-1.6986
X2.787Y-4.3671
X2.79Y-2.3293
X2.7913Y-1.9386
X2.7914Y-5.5944
X2.8031Y-2.6276
X2.8052Y-5.4777
X2.8146Y-5.3941
X2.8228Y-2.5606
X2.8229Y-0.9973
X2.8229Y-1.245
X2.8325Y-1.6099
X2.8333Y-1.5217
X2.8622Y-2.5606
X2.874Y-2.0134
X2.8772Y-4.3656
X2.8779Y-2.9771
X2.878Y-5.3743
X2.8795Y-2.8001
X2.8858Y-2.1984
X2.8941Y-1.15
X2.9094Y-1.8165
X2.9101Y-3.007
X2.9122Y-1.6814
X2.9208Y-4.2428
X2.9258Y-4.4628
X2.9323Y-2.3542
X2.9588Y-3.7305
X2.9606Y-5.4217
X2.9606Y-1.9189
X2.9613Y-3.3837
X2.9619Y-2.0889
X2.963Y-5.4911
X2.9645Y-2.195
X2.9697Y-5.5501
X2.9706Y-2.7968
X2.9749Y-4.364
X2.981Y-3.8992
X2.9839Y-5.5963
X2.9851Y-1.1252
X3.0008Y-1.2503
X3.0043Y-2.6562
X3.0072Y-1.482
X3.0079Y-4.1787
X3.0096Y-2.4457
X3.0195Y-3.099
X3.0238Y-5.6567
X3.0635Y-0.948
X3.0682Y-5.3871
X3.0874Y-1.1044
X3.0879Y-4.3666
X3.0945Y-5.2457
X3.0972Y-5.6543
X3.1209Y-4.5619
X3.1223Y-4.4613
X3.1244Y-4.8412
X3.1308Y-5.1412
X3.1325Y-4.0953
X3.1347Y-4.0056
X3.1384Y-5.4479
X3.1563Y-1.6805
X3.1573Y-1.9679
X3.1604Y-1.8558
X3.1934Y-5.3404
X3.2054Y-3.1104
X3.2062Y-2.3285
X3.2062Y-2.5857
X3.2065Y-1.7596
X3.207Y-2.0847
X3.207Y-2.8469
X3.209Y-1.5666
X3.2091Y-3.3724
X3.2527Y-0.9465
X3.2588Y-1.2635
X3.2857Y-5.6268
X3.2857Y-5.6615
X3.2963Y-1.1801
X3.3083Y-5.4454
X3.3184Y-1.3035
X3.348Y-5.5119
X3.3594Y-5.6084
X3.3681Y-1.7667
X3.3682Y-5.162
X3.3694Y-4.7773
X3.3717Y-1.9198
X3.3718Y-4.0506
X3.3718Y-4.9974
X3.3758Y-3.9732
X3.3819Y-4.3126
X3.3899Y-1.6208
X3.3946Y-2.0591
X3.3955Y-2.5522
X3.3955Y-3.6785
X3.3969Y-4.1327
X3.4005Y-2.2467
X3.4005Y-2.8445
X3.4021Y-3.1616
X3.4021Y-3.4523
X3.4021Y-4.4426
X3.4055Y-4.6422
X3.4138Y-1.2615
X3.4167Y-5.5558
X3.4432Y-1.8428
X3.4463Y-1.1787
X3.4547Y-1.3223
X3.467Y-0.9465
X3.5011Y-3.5503
X3.5027Y-5.611
X3.5131Y-4.249
X3.5138Y-3.6679
X3.5142Y-2.0385
X3.5146Y-1.9375
X3.5149Y-4.1494
X3.5236Y-3.4922
X3.5334Y-4.7413
X3.5375Y-4.4402
X3.5375Y-5.1292
X3.5439Y-2.6338
X3.5455Y-2.7625
X3.5474Y-1.6237
X3.5518Y-2.4642
X3.5518Y-3.355
X3.5534Y-2.9368
X3.5534Y-3.0583
X3.555Y-2.3316
X3.5557Y-3.2382
X3.556Y-1.2637
X3.5591Y-1.363
X3.5621Y-1.1777
X3.5662Y-3.4893
X3.5682Y-5.6197
X3.5709Y-3.3992
X3.571Y-3.7543
X3.5733Y-3.6164
X3.5826Y-2.1257
X3.5877Y-5.342
X3.5983Y-1.5781
X3.5991Y-1.921
X3.6011Y-2.0098
X3.6023Y-1.8543
X3.6029Y-3.8682
X3.6035Y-4.0045
X3.6105Y-4.3694
X3.6126Y-4.4918
X3.6207Y-4.1689
X3.6269Y-4.9449
X3.6283Y-4.5722
X3.6438Y-1.6493
X3.6491Y-2.2143
X3.6501Y-3.4158
X3.6511Y-3.3535
X3.6532Y-5.6149
X3.6578Y-1.2637
X3.6582Y-4.4219
X3.6598Y-4.2399
X3.6609Y-1.3635
X3.6621Y-1.1753
X3.6745Y-0.9458
X3.6785Y-2.0075
X3.6794Y-1.9416
X3.6812Y-2.1233
X3.6895Y-1.6493
X3.7001Y-3.3523
X3.7001Y-3.4212
X3.7166Y-4.3245
X3.728Y-4.2403
X3.7441Y-4.5003
X3.7489Y-1.5652
X3.752Y-4.7772
X3.755Y-4.41
X3.7551Y-1.361
X3.7588Y-3.9993
X3.7592Y-1.2632
X3.7677Y-3.6748
X3.7679Y-3.241
X3.7704Y-2.1517
X3.7716Y-1.6919
X3.7748Y-1.9894
X3.7751Y-2.3316
X3.7755Y-1.7369
X3.7796Y-4.094
X3.7807Y-3.055
X3.7832Y-3.817
X3.7861Y-2.4603
X3.7861Y-2.6354
X3.7867Y-3.7173
X3.7877Y-2.9384
X3.7885Y-2.7609
X3.7891Y-4.5756
X3.792Y-4.2403
X3.7962Y-5.35
X3.8047Y-3.9421
X3.8161Y-5.1358
X3.8178Y-4.1343
X3.8281Y-1.9888
X3.8282Y-1.9268
X3.8291Y-3.8679
X3.8297Y-1.8863
X3.8302Y-1.8417
X3.8317Y-1.7982
X3.8322Y-1.7506
X3.8331Y-1.6596
X3.8337Y-1.7004
X3.8351Y-2.2243
X3.8549Y-1.2642
X3.8559Y-1.3605
X3.8583Y-1.1757
X3.86Y-4.13
X3.8605Y-4.4145
X3.8637Y-4.2551
X3.8648Y-4.2208
X3.8686Y-5.6149
X3.8704Y-3.8088
X3.8768Y-3.5361
X3.8815Y-0.9471
X3.8825Y-1.987
X3.8942Y-4.1843
X3.8962Y-3.9585
X3.9Y-4.335
X3.9037Y-2.5536
X3.904Y-2.0911
X3.9051Y-2.8479
X3.91Y-2.289
X3.9179Y-3.0529
X3.9347Y-1.9888
X3.9379Y-3.6106
X3.9402Y-3.2442
X3.9477Y-1.8868
X3.9498Y-1.8438
X3.95Y-1.93
X3.95Y-4.1
X3.9503Y-1.709
X3.9503Y-1.7571
X3.9503Y-1.7992
X3.9523Y-1.6665
X3.9537Y-1.358
X3.9545Y-4.2615
X3.9556Y-1.2608
X3.9641Y-3.853
X3.9889Y-5.1622
X3.9923Y-4.4247
X3.9927Y-4.5851
X4.0036Y-1.6612
X4.0044Y-5.3388
X4.0064Y-4.5016
X4.0181Y-1.7436
X4.044Y-3.7212
X4.045Y-4.425
X4.0485Y-3.5357
X4.049Y-3.8
X4.0492Y-3.8809
X4.05Y-4.035
X4.0504Y-3.3534
X4.0517Y-4.9254
X4.06Y-3.995
X4.0623Y-2.136
X4.0634Y-3.6424
X4.0683Y-2.0848
X4.0683Y-1.658
X4.0707Y-0.9456
X4.0723Y-3.9238
X4.0799Y-4.085
X4.0982Y-1.9822
X4.1007Y-1.9384
X4.1012Y-4.4254
X4.1068Y-1.2688
X4.1077Y-3.24
X4.1142Y-1.6429
X4.12Y-1.1237
X4.1204Y-3.4233
X4.1277Y-2.0784
X4.1289Y-5.616
X4.1364Y-1.5361
X4.1503Y-5.36
X4.1651Y-4.2582
X4.1712Y-4.2149
X4.1813Y-1.9892
X4.196Y-1.8931
X4.2034Y-2.0772
X4.205Y-4.085
X4.2121Y-3.6343
X4.2163Y-3.3507
X4.2163Y-3.8403
X4.2259Y-4.4261
X4.2278Y-1.4389
X4.2294Y-4.5028
X4.2334Y-4.8107
X4.24Y-4.115
X4.24Y-4.3
X4.246Y-2.5456
X4.246Y-2.7619
X4.246Y-2.9271
X4.2476Y-3.1401
X4.2518Y-2.3216
X4.2542Y-1.753
X4.26Y-4.19
X4.285Y-0.9456
X4.2856Y-3.6364
X4.2879Y-3.4186
X4.2921Y-2.0668
X4.293Y-1.7699
X4.301Y-4.7238
X4.3015Y-5.1926
X4.3183Y-5.6196
X4.3199Y-1.5711
X4.3228Y-1.3401
X4.325Y-1.645
X4.3283Y-4.0449
X4.3293Y-5.0519
X4.33Y-3.88
X4.3332Y-2.0668
X4.3368Y-4.424
X4.3398Y-1.9769
X4.358Y-3.6983
X4.363Y-3.635
X4.375Y-4.36
X4.3763Y-1.1237
X4.3769Y-2.0668
X4.4Y-4.295
X4.4001Y-4.7258
X4.4065Y-3.8912
X4.4098Y-4.4107
X4.4114Y-3.8318
X4.4223Y-1.2345
X4.4225Y-4.0058
X4.425Y-4.5028
X4.4291Y-1.6193
X4.4341Y-3.5617
X4.4363Y-1.4606
X4.4368Y-1.6927
X4.4472Y-2.0843
X4.4484Y-1.852
X4.45Y-4.92
X4.4573Y-3.9584
X4.4627Y-5.6078
X4.4809Y-1.6509
X4.4925Y-0.9448
X4.4945Y-1.8584
X4.495Y-1.69
X4.495Y-1.73
X4.495Y-1.775
X4.495Y-1.8195
X4.5006Y-4.7243
X4.5041Y-4.1643
X4.5057Y-4.407
X4.5109Y-1.6012
X4.5169Y-1.3816
X4.5322Y-1.9902
X4.5436Y-5.0596
X4.5498Y-1.5933
X4.5583Y-1.7657
X4.5609Y-1.2638
X4.572Y-5.1895
X4.5758Y-3.5305
X4.5903Y-1.5923
X4.5948Y-2.7377
X4.5984Y-2.9245
X4.5997Y-4.7248
X4.6006Y-1.4632
X4.6057Y-2.0841
X4.6064Y-1.9797
X4.6086Y-5.3513
X4.609Y-1.9188
X4.6109Y-1.1237
X4.62Y-1.655
X4.62Y-1.69
X4.62Y-1.73
X4.6267Y-4.5076
X4.6347Y-4.2689
X4.6372Y-1.5957
X4.644Y-3.7694
X4.6458Y-2.6176
X4.646Y-1.3634
X4.6507Y-3.912
X4.655Y-3.2264
X4.6602Y-1.8503
X4.6671Y-2.3217
X4.67Y-2.0257
X4.6748Y-1.9442
X4.6755Y-1.61
X4.6755Y-1.6619
X4.7003Y-4.7248
X4.7124Y-0.9454
X4.727Y-1.1623
X4.7283Y-3.6894
X4.7294Y-2.085
X4.7304Y-1.2623
X4.735Y-1.4637
X4.7452Y-2.2381
X4.7491Y-2.9771
X4.7515Y-4.2683
X4.7537Y-3.4156
X4.7539Y-3.3222
X4.7539Y-3.532
X4.7557Y-2.698
X4.7573Y-2.4288
X4.7607Y-3.8196
X4.7607Y-4.0185
X4.7666Y-4.8392
X4.7692Y-1.958
X4.7716Y-5.6184
X4.7718Y-1.6395
X4.7783Y-2.1607
X4.8193Y-5.0483
X4.8193Y-1.3634
X4.8233Y-4.3696
X4.8391Y-4.4758
X4.848Y-1.1272
X4.8514Y-4.2432
X4.8525Y-1.8137
X4.8535Y-1.857
X4.86Y-4.8932
X4.8661Y-1.95
X4.8851Y-1.6355
X4.8935Y-2.3761
X4.8975Y-2.2657
X4.8979Y-2.6511
X4.8991Y-1.2593
X4.8998Y-4.7228
X4.8998Y-2.1023
X4.9014Y-2.0329
X4.9014Y-2.5403
X4.9017Y-0.9439
X4.9036Y-1.4606
X4.9042Y-3.8071
X4.9075Y-3.9385
X4.9107Y-3.5225
X4.9109Y-1.9486
X4.9135Y-3.6465
X4.918Y-2.7975
X4.9181Y-2.9824
X4.9199Y-5.3501
X4.9219Y-3.1573
X4.9243Y-3.4224
X4.933Y-4.4134
X4.9338Y-4.5531
X4.9363Y-1.6258
X4.9448Y-4.7966
X4.9451Y-1.16
X4.9546Y-1.3634
X4.983Y-2.1817
X4.9846Y-2.2795
X4.9949Y-3.5886
X4.9963Y-1.8128
X4.9999Y-4.7248
X5.0064Y-1.8595
X5.0081Y-1.9692
X5.0459Y-1.1292
X5.0512Y-2.4976
X5.0599Y-1.4655
X5.0614Y-1.3622
X5.0657Y-4.8775
X5.0659Y-2.3821
X5.0682Y-1.2527
X5.0766Y-1.7814
X5.0811Y-3.8049
X5.0821Y-4.3592
X5.0951Y-2.1682
X5.0961Y-2.266
X5.1004Y-4.7238
X5.1018Y-5.6113
X5.11Y-1.9682
X5.1149Y-1.8422
X5.1159Y-0.9439
X5.1189Y-1.7566
X5.122Y-2.5882
X5.1381Y-4.9739
X5.1405Y-4.392
X5.1474Y-5.0484
X5.1488Y-4.5044
X5.159Y-4.4477
X5.1658Y-3.7445
X5.1707Y-3.1593
X5.1787Y-3.9092
X5.1803Y-4.9252
X5.1854Y-4.2416
X5.1857Y-1.1049
X5.1892Y-2.0941
X5.1896Y-2.1321
X5.1909Y-3.3737
X5.1931Y-5.0053
X5.1977Y-2.693
X5.1988Y-3.5423
X5.1995Y-4.7233
X5.2024Y-1.231
X5.2095Y-1.9539
X5.2101Y-1.6639
X5.2101Y-1.8328
X5.2184Y-1.7642
X5.2274Y-4.4057
X5.2297Y-4.5578
X5.2406Y-5.3561
X5.248Y-3.322
X5.2537Y-5.2152
X5.2584Y-2.8058
X5.2602Y-3.8322
X5.2614Y-2.894
X5.2897Y-3.3185
X5.2996Y-4.7243
X5.3234Y-0.9431
X5.324Y-1.1079
X5.3263Y-1.2644
X5.3288Y-3.323
X5.3418Y-4.5273
X5.3511Y-5.0264
X5.3567Y-5.2069
X5.3687Y-3.3242
X5.3726Y-3.1811
X5.4001Y-4.7243
X5.4016Y-2.6669
X5.4043Y-3.7123
X5.4076Y-0.997
X5.4081Y-3.3924
X5.4092Y-4.1418
X5.4094Y-2.5685
X5.4105Y-3.3287
X5.4107Y-4.0053
X5.4213Y-1.7457
X5.4213Y-1.1664
X5.4233Y-1.792
X5.4253Y-4.9547
X5.4254Y-2.0371
X5.427Y-1.9261
X5.4304Y-1.2637
X5.4361Y-1.8339
X5.4366Y-4.4959
X5.4526Y-5.2164
X5.4564Y-1.8937
X5.4939Y-5.0614
X5.496Y-5.6149
X5.5012Y-4.7253
X5.5017Y-3.747
X5.5056Y-1.1049
X5.5058Y-0.9437
X5.5087Y-4.2343
X5.5315Y-1.2629
X5.5318Y-3.5994
X5.5343Y-3.3177
X5.5384Y-4.4105
X5.5445Y-3.8971
X5.5637Y-4.9679
X5.5661Y-4.8744
X5.5732Y-5.3561
X5.5926Y-4.7318
X5.6162Y-4.2035
X5.6234Y-1.2637
X5.638Y-5.2254
X5.6614Y-1.789
X5.6614Y-2.1118
X5.6614Y-2.3677
X5.6624Y-4.7834
X5.673Y-4.9678
X5.6847Y-3.1934
X5.6893Y-4.4292
X5.6926Y-3.4059
X5.6948Y-3.0012
X5.695Y-0.9421
X5.6972Y-2.6575
X5.7012Y-2.5757
X5.7013Y-4.6208
X5.7043Y-2.4957
X5.7197Y-3.9671
X5.7206Y-1.7535
X5.7245Y-4.7298
X5.7248Y-5.3075
X5.7264Y-1.4615
X5.7274Y-4.8726
X5.7547Y-1.9843
X5.7581Y-4.1122
X5.7588Y-1.9024
X5.7618Y-1.8224
X5.7718Y-4.3653
X5.7721Y-5.3632
X5.7756Y-2.567
X5.7766Y-2.4906
X5.7774Y-2.6567
X5.7777Y-3.846
X5.7854Y-4.4777
X5.7944Y-2.9987
X5.7975Y-1.1009
X5.8044Y-4.9662
X5.8267Y-1.1675
X5.828Y-4.4306
X5.8341Y-1.8173
X5.8348Y-1.9016
X5.835Y-1.9834
X5.8375Y-4.8517
X5.852Y-2.6567
X5.8528Y-2.5724
X5.8577Y-2.4922
X5.8626Y-5.2553
X5.8744Y-3.2036
X5.8895Y-4.2482
X5.907Y-3.1107
X5.9092Y-0.9421
X5.9095Y-1.9834
X5.9103Y-1.8991
X5.9118Y-5.3572
X5.9146Y-1.753
X5.9152Y-1.8189
X5.9154Y-5.0673
X5.9222Y-4.4883
X5.9248Y-1.166
X5.9455Y-5.2583
X6.0053Y-5.6156
X6.0158Y-4.5137
X6.0202Y-4.669
X6.0243Y-1.1622
X6.0256Y-3.1948
X6.0285Y-4.3437
X6.0398Y-2.3957
X6.0482Y-3.4052
X6.0489Y-2.6438
X6.053Y-2.5619
X6.0534Y-4.9689
X6.0542Y-3.0009
X6.0561Y-2.4819
X6.0741Y-1.1019
X6.0761Y-5.3171
X6.0786Y-4.855
X6.1041Y-1.9767
X6.1052Y-3.3775
X6.1061Y-1.7546
X6.1081Y-1.8948
X6.1112Y-1.8148
X6.1167Y-0.9414
X6.1216Y-1.1644
X6.1284Y-2.4768
X6.1292Y-2.643
X6.1299Y-2.5685
X6.133Y-5.6025
X6.1359Y-3.9605
X6.1412Y-3.0031
X6.1421Y-3.3598
X6.145Y-3.0653
X6.1477Y-3.2038
X6.1508Y-5.4299
X6.1594Y-5.2541
X6.1767Y-5.6047
X6.1835Y-1.8097
X6.1843Y-1.9759
X6.1863Y-1.894
X6.1877Y-1.6062
X6.2008Y-4.8594
X6.2037Y-2.643
X6.2046Y-2.5587
X6.2094Y-2.4784
X6.2115Y-3.374
X6.2231Y-5.0658
X6.2239Y-4.2605
X6.2349Y-5.4304
X6.2409Y-1.2119
X6.2458Y-3.183
X6.2589Y-1.9759
X6.2595Y-3.6092
X6.2597Y-1.8916
X6.2645Y-1.8113
X6.2723Y-1.7343
X6.2745Y-4.9629
X6.2844Y-4.7923
X6.2871Y-5.2526
X6.2946Y-3.8287
X6.3001Y-1.104
X6.3058Y-3.3793
X6.3196Y-0.942
X6.3239Y-3.198
X6.3398Y-5.4846
X6.3424Y-3.3415
X6.348Y-1.3084
X6.3621Y-5.2997
X6.3648Y-4.7108
X6.365Y-2.6512
X6.3691Y-2.5693
X6.3708Y-1.5462
X6.3722Y-2.4893
X6.3731Y-1.4185
X6.3757Y-3.0064
X6.3798Y-4.3437
X6.3819Y-3.3237
X6.3967Y-4.9618
X6.4105Y-1.725
X6.4157Y-2.3912
X6.4182Y-5.6396
X6.425Y-3.9635
X6.4404Y-1.9743
X6.4422Y-3.5861
X6.4445Y-1.8924
X6.4445Y-2.4842
X6.4449Y-2.5685
X6.4453Y-2.6504
X6.4475Y-1.8124
X6.4583Y-5.4071
X6.4698Y-1.7605
X6.4733Y-1.6288
X6.4877Y-5.249
X6.4968Y-3.002
X6.5028Y-4.0817
X6.5033Y-3.3801
X6.5088Y-0.9404
X6.5152Y-1.3935
X6.5199Y-1.8073
X6.5199Y-2.6504
X6.5204Y-1.8898
X6.5207Y-1.9735
X6.5207Y-2.5661
X6.5216Y-4.2923
X6.5219Y-4.2006
X6.5231Y-4.8598
X6.5255Y-2.4858
X6.529Y-1.104
X6.5485Y-5.2931
X6.5526Y-3.1977
X6.5635Y-5.5138
X6.5635Y-5.5877
X6.5643Y-5.0681
X6.5671Y-4.0208
X6.5714Y-4.9562
X6.5721Y-1.7595
X6.5731Y-1.6602
X6.5813Y-3.0945
X6.5952Y-1.9735
X6.596Y-1.8892
X6.5972Y-5.4341
X6.6009Y-1.8089
X6.6082Y-3.5068
X6.6116Y-3.7216
X6.6449Y-5.516
X6.65Y-4.35
X6.65Y-5.65
X6.6502Y-5.1707
X6.6506Y-5.5897
X6.6526Y-3.94
X6.6552Y-1.6612
X6.6565Y-1.2628
X6.6567Y-1.7179
X6.6592Y-1.531
X6.6856Y-4.144
X6.6907Y-4.7283
X6.6951Y-5.3215
X6.7186Y-4.0105
X6.7197Y-3.182
X6.7225Y-2.6494
X6.7231Y-0.9404
X6.7261Y-5.0898
X6.7265Y-2.5676
X6.7296Y-2.4876
X6.7346Y-3.0064
X6.7534Y-1.7164
X6.7549Y-3.3907
X6.7615Y-1.6592
X6.7617Y-5.425
X6.7641Y-2.3887
X6.7656Y-1.1055
X6.7661Y-1.5305
X6.7715Y-4.8103
X6.7727Y-1.7686
X6.7874Y-4.9516
X6.7891Y-4.0817
X6.793Y-1.9753
X6.7971Y-1.8935
X6.7992Y-2.5685
X6.8001Y-3.7925
X6.8001Y-1.8135
X6.8019Y-2.4825
X6.8027Y-2.6486
X6.8083Y-4.7246
X6.8096Y-3.1916
X6.8151Y-5.3321
X6.8278Y-5.1914
X6.844Y-4.6438
X6.8508Y-3.5847
X6.8537Y-4.3627
X6.859Y-3.0009
X6.8679Y-4.9441
X6.8679Y-4.7284
X6.872Y-1.6592
X6.8724Y-1.8083
X6.8725Y-1.763
X6.8732Y-1.9745
X6.876Y-1.8926
X6.8764Y-3.8632
X6.8773Y-2.6486
X6.8781Y-2.5643
X6.8806Y-1.5553
X6.883Y-2.4841
X6.8986Y-3.2641
X6.9Y-3.7112
X6.9072Y-4.945
X6.9073Y-4.7294
X6.9161Y-5.1083
X6.9183Y-4.0832
X6.924Y-5.2755
X6.9259Y-3.2266
X6.927Y-1.1541
X6.9305Y-0.9397
X6.9372Y-4.16
X6.944Y-5.6485
X6.9466Y-4.7277
X6.9466Y-4.9448
X6.9478Y-1.9745
X6.9486Y-1.8902
X6.9535Y-1.81
X6.9547Y-2.8679
X6.9551Y-3.0293
X6.9558Y-2.9468
X6.959Y-4.2429
X6.9618Y-3.5034
X6.9671Y-3.3831
X6.9691Y-3.3
X6.9724Y-4.327
X6.9746Y-4.6491
X6.9763Y-1.3633
X6.9809Y-1.6652
X6.9836Y-3.1904
X6.9856Y-3.0973
X6.9859Y-4.946
X6.9859Y-4.7277
X6.9925Y-1.1024
X7.0028Y-5.2763
X7.0032Y-1.7139
X7.0044Y-2.6481
X7.0049Y-2.7783
X7.0061Y-3.7359
X7.0061Y-3.8489
X7.0062Y-3.5843
X7.0063Y-2.3971
X7.0064Y-2.5139
X7.0085Y-4.2924
X7.0118Y-2.8358
X7.014Y-5.0186
X7.0211Y-2.8828
X7.0358Y-4.7383
X7.0424Y-5.2959
X7.0431Y-4.8387
X7.0551Y-4.9459
X7.0771Y-1.263
X7.0788Y-5.5276
X7.0819Y-4.5771
X7.0859Y-5.4564
X7.0883Y-4.6887
X7.113Y-2.3476
X7.1143Y-3.6478
X7.1148Y-3.4476
X7.1157Y-3.2475
X7.1166Y-5.5739
X7.1191Y-2.6455
X7.1191Y-1.7237
X7.1194Y-2.7478
X7.1197Y-2.5462
X7.1201Y-2.4463
X7.1245Y-1.954
X7.127Y-5.3983
X7.14Y-1.1065
X7.1488Y-0.942
X7.1565Y-2.024
X7.1759Y-1.2635
X7.1965Y-3.3451
X7.1967Y-1.104
X7.1967Y-3.5436
X7.1972Y-3.9458
X7.1973Y-3.1445
X7.1983Y-3.7447
X7.1983Y-3.846
X7.1986Y-4.0469
X7.2018Y-2.9477
X7.2128Y-2.8854
X7.2143Y-2.3878
X7.2174Y-2.0214
X7.2179Y-2.7973
X7.2191Y-2.7539
X7.2195Y-2.6289
X7.2247Y-5.4115
X7.2293Y-1.8422
X7.231Y-4.6557
X7.2316Y-1.9502
X7.2346Y-1.5839
X7.2349Y-5.258
X7.2352Y-4.908
X7.2383Y-2.4631
X7.244Y-2.0504
X7.2444Y-5.0744
X7.2549Y-4.2351
X7.2704Y-5.4916
X7.2737Y-1.2585
X7.2747Y-1.3638
X7.2836Y-4.3151
X7.2958Y-4.407
X7.297Y-1.1531
X7.3241Y-5.5447
X7.3281Y-1.6926
X7.3289Y-1.5733
X7.3306Y-5.337
X7.338Y-0.9404
X7.3636Y-5.2356
X7.3647Y-3.0465
X7.366Y-3.7765
X7.3717Y-3.3776
X7.3737Y-4.9797
X7.3739Y-4.0478
X7.3774Y-4.2621
X7.3898Y-3.911
X7.3962Y-2.7743
X7.4009Y-2.6297
X7.4064Y-2.1158
X7.4065Y-2.9052
X7.4135Y-1.2559
X7.4137Y-5.6242
X7.4191Y-4.4598
X7.4229Y-3.593
X7.4261Y-3.24
X7.4323Y-1.1546
X7.4445Y-5.4881
X7.4585Y-5.336
X7.461Y-2.5444
X7.4655Y-4.7842
X7.4659Y-5.0963
X7.5047Y-3.4794
X7.5052Y-3.7468
X7.5202Y-4.4799
X7.5208Y-3.0925
X7.5223Y-2.8936
X7.5339Y-3.556
X7.5365Y-3.4119
X7.5386Y-4.2236
X7.5403Y-1.3951
X7.5472Y-4.0291
X7.5523Y-0.9404
X7.5524Y-1.0002
X7.5555Y-1.463
X7.5577Y-2.846
X7.5586Y-2.7
X7.5595Y-2.7484
X7.5595Y-2.8023
X7.5626Y-1.5476
X7.5713Y-3.8653
X7.5725Y-3.751
X7.6137Y-2.6747
X7.6162Y-2.8444
X7.6366Y-2.2446
X7.6413Y-1.7614
X7.647Y-2.9589
X7.648Y-2.5677
X7.682Y-1.1973
X7.7339Y-3.534
X7.7347Y-3.6374
X7.7354Y-3.7035
X7.7432Y-3.1805
X7.7438Y-3.9064
X7.7589Y-3.0036
X7.7597Y-0.9397
X7.7606Y-2.8772
X7.8031Y-2.5764
X7.8031Y-2.6472
X7.8031Y-2.7063
X7.8093Y-1.4812
X7.8266Y-3.6381
X7.8274Y-3.6989
X7.8474Y-2.2556
X7.8534Y-2.9202
X7.8543Y-2.352
X7.8543Y-2.4189
X7.8554Y-3.4194
X7.8583Y-2.7063
X7.8592Y-3.2422
X7.8622Y-2.6472
X7.8622Y-3.0173
X7.8632Y-0.9994
X7.8661Y-3.1079
X7.8669Y-1.6237
X7.8775Y-1.1886
X7.878Y-2.4898
X7.878Y-2.5961
X7.8889Y-3.5462
X7.8915Y-2.1426
X7.892Y-1.8943
X7.8974Y-1.7274
X7.9016Y-1.9583
X7.9449Y-1.9583
X7.9467Y-5.5275
X7.9592Y-4.4514
X7.9662Y-1.2809
X7.9757Y-1.5946
X7.9882Y-1.9583
X7.9921Y-2.1426
X7.9921Y-2.2929
X7.9921Y-2.4661
X7.9921Y-2.9268
X7.9921Y-3.1039
X7.9961Y-2.6079
X8.0246Y-0.9886
X8.0342Y-1.8702
X8.0577Y-2.1058
X8.0593Y-3.0685
X8.0623Y-2.3231
X8.0631Y-2.4302
X8.0661Y-2.9644
X8.0676Y-2.7395
X8.095Y-1.1293
X8.1223Y-1.4242
X8.1376Y-2.6705
X8.1405Y-3.0694
X8.1413Y-2.7435
X8.1417Y-2.3205
X8.142Y-2.9417
X8.142Y-3.2507
X8.1457Y-2.1064
X8.1596Y-2.4272
X8.1933Y-2.6295
X8.1963Y-2.9365
X8.201Y-3.6749
X8.2022Y-3.3652
X8.2041Y-2.3073
X8.2052Y-1.5207
X8.2112Y-3.9131
X8.2114Y-4.1871
X8.2125Y-4.48
X8.2163Y-3.2659
X8.2244Y-1.8441
X8.225Y-2.7406
X8.225Y-2.7839
X8.225Y-3.0665
X8.225Y-3.109
X8.2264Y-2.4749
X8.2272Y-2.1049
X8.2291Y-2.1512
X8.2291Y-2.4257
X8.2473Y-1.2128
X8.3Y-5.6
X8.3131Y-1.3398
X8.3939Y-4.2991
X8.3944Y-2.4906
X8.3954Y-2.7179
X8.3954Y-3.0399
X8.3955Y-2.4144
X8.3955Y-2.4525
X8.396Y-2.7604
X8.396Y-3.087
X8.3967Y-2.8022
X8.3967Y-3.1347
X8.3989Y-2.0851
X8.3989Y-2.1232
X8.3989Y-2.1635
X8.4065Y-1.5731
X8.4641Y-1.7234
X8.4869Y-3.3498
X8.4907Y-4.5956
X8.4923Y-3.6779
X8.4964Y-4.0326
X8.5Y-5.0
X8.504Y-5.4001
X8.5102Y-1.4886
T3
X2.4256Y-4.3154
X2.4256Y-5.3154
X2.5256Y-4.3154
X2.5256Y-5.3154
X2.6256Y-4.3154
X2.6256Y-5.3154
X2.7256Y-4.3154
X2.7256Y-5.3154
X2.8256Y-4.3154
X2.8256Y-5.3154
X2.9256Y-4.3154
X2.9256Y-5.3154
X3.0256Y-4.3154
X3.0256Y-5.3154
X3.1256Y-4.3154
X3.1256Y-5.3154
X7.4909Y-4.5797
X7.4909Y-5.5797
X7.5909Y-4.5797
X7.5909Y-5.5797
X7.6909Y-4.5797
X7.6909Y-5.5797
X7.7909Y-4.5797
X7.7909Y-5.5797
X7.8909Y-4.5797
X7.8909Y-5.5797
X7.9909Y-4.5797
X7.9909Y-5.5797
X8.0909Y-4.5797
X8.0909Y-5.5797
X8.1909Y-4.5797
X8.1909Y-5.5797
T4
X3.9808Y-2.5634
X4.1186Y-2.5634
X5.9591Y-4.1421
X5.9591Y-4.2421
X5.9591Y-4.3421
X5.9591Y-4.4421
X5.9591Y-4.5421
X5.9591Y-4.6421
X5.9591Y-4.7421
X5.9591Y-4.8421
X6.4591Y-4.1421
X6.4591Y-4.2421
X6.4591Y-4.3421
X6.4591Y-4.4421
X6.4591Y-4.5421
X6.4591Y-4.6421
X6.4591Y-4.7421
X6.4591Y-4.8421
X7.65Y-3.5925
X7.65Y-3.6713
X7.65Y-3.75
X7.65Y-3.8287
X7.65Y-3.9075
T5
X7.9075Y-3.6504
X7.9075Y-3.7488
X7.9862Y-3.6504
X7.9862Y-3.7488
T6
X3.4551Y-2.0975
X3.4551Y-2.1975
X3.4551Y-2.2975
X3.4551Y-2.3975
X3.4551Y-2.4975
X3.4551Y-2.5975
X3.4551Y-2.6975
X3.4551Y-2.7975
X3.4551Y-2.8975
X3.4551Y-2.9975
X3.4551Y-3.0975
X3.4551Y-3.1975
X3.4551Y-3.2975
X3.4551Y-3.3975
X3.4551Y-3.4975
X3.4551Y-3.5975
X3.4551Y-3.6975
X3.4551Y-3.7975
X3.4551Y-3.8975
X3.4551Y-3.9975
X3.4551Y-4.0975
X3.4551Y-4.1975
X3.4551Y-4.2975
X3.4551Y-4.3975
X3.4551Y-4.4975
X3.4551Y-4.5975
X3.4551Y-4.6975
X3.4551Y-4.7975
X3.4551Y-4.8975
X3.4551Y-4.9975
X3.4551Y-5.0975
X3.4551Y-5.1975
X3.67Y-4.685
X3.6964Y-3.5834
X3.6964Y-3.6834
X3.6964Y-3.7834
X3.6964Y-3.8834
X3.6964Y-3.9834
X3.6964Y-4.0834
X3.6964Y-4.1834
X4.0887Y-4.6116
X4.1124Y-2.2166
X4.1887Y-4.6116
X4.2124Y-2.2166
X4.2887Y-4.6116
X4.3124Y-2.2166
X4.3887Y-4.6116
X4.4124Y-2.2166
X4.4887Y-4.6116
X4.5124Y-2.2166
X4.5887Y-4.6116
X4.6124Y-2.2166
X4.6887Y-4.6116
X4.7887Y-4.6116
X4.8887Y-4.6116
X4.9887Y-4.6116
X5.0051Y-5.1585
X5.0887Y-4.6116
X5.1051Y-5.1585
X5.1887Y-4.6116
X5.2051Y-5.1585
X5.2887Y-4.6116
X5.3051Y-5.1585
X5.3887Y-4.6116
X5.4051Y-5.1585
X5.4887Y-4.6116
X5.5051Y-5.1585
X5.5887Y-4.6116
X5.6051Y-5.1585
X5.7051Y-5.1585
X5.8051Y-5.1585
X5.9051Y-5.1585
X6.0051Y-5.1585
X6.1051Y-5.1585
X6.2051Y-5.1585
X6.3051Y-5.1585
X6.4051Y-5.1585
X6.5051Y-5.1585
X7.1525Y-2.0973
X7.1525Y-2.1973
X7.1525Y-2.2973
X7.1525Y-2.3973
X7.1525Y-2.4973
X7.1525Y-2.5973
X7.1525Y-2.6973
X7.1525Y-2.7973
X7.1525Y-2.8973
X7.1525Y-2.9973
X7.1525Y-3.0973
X7.1525Y-3.1973
X7.1525Y-3.2973
X7.1525Y-3.3973
X7.1525Y-3.4973
X7.1525Y-3.5973
X7.1525Y-3.6973
X7.1525Y-3.7973
X7.1525Y-3.8973
X7.1525Y-3.9973
X7.1525Y-4.0973
X7.1525Y-4.1973
X7.1525Y-4.2973
X7.1525Y-4.3973
X7.1525Y-4.4973
X7.1525Y-4.5973
X7.1525Y-4.6973
X7.1525Y-4.7973
X7.1525Y-4.8973
X7.1525Y-4.9973
X7.1525Y-5.0973
X7.1525Y-5.1973
T7
X6.0798Y-4.006
X6.1782Y-4.006
X6.2766Y-4.006
X6.375Y-4.006
X6.4735Y-4.006
T8
X3.2283Y-1.2142
X3.2283Y-1.3126
X3.2283Y-1.411
X3.2283Y-1.5094
X3.374Y-1.2142
X3.374Y-1.3126
X3.374Y-1.411
X3.374Y-1.5094
X3.5118Y-1.2142
X3.5118Y-1.3126
X3.5118Y-1.411
X3.5118Y-1.5094
X3.6102Y-1.2142
X3.6102Y-1.3126
X3.6102Y-1.411
X3.6102Y-1.5094
X3.7087Y-1.2142
X3.7087Y-1.3126
X3.7087Y-1.411
X3.7087Y-1.5094
X3.8071Y-1.2142
X3.8071Y-1.3126
X3.8071Y-1.411
X3.8071Y-1.5094
X3.9055Y-1.2142
X3.9055Y-1.3126
X3.9055Y-1.411
X3.9055Y-1.5094
X4.0039Y-1.2142
X4.0039Y-1.3126
X4.0039Y-1.411
X4.0039Y-1.5094
X5.0Y-1.2142
X5.0Y-1.3126
X5.0Y-1.411
X5.0Y-1.5094
X5.1457Y-1.2142
X5.1457Y-1.3126
X5.1457Y-1.411
X5.1457Y-1.5094
X5.2835Y-1.2142
X5.2835Y-1.3126
X5.2835Y-1.411
X5.2835Y-1.5094
X5.3819Y-1.2142
X5.3819Y-1.3126
X5.3819Y-1.411
X5.3819Y-1.5094
X5.4803Y-1.2142
X5.4803Y-1.3126
X5.4803Y-1.411
X5.4803Y-1.5094
X5.5787Y-1.2142
X5.5787Y-1.3126
X5.5787Y-1.411
X5.5787Y-1.5094
X5.6772Y-1.2142
X5.6772Y-1.3126
X5.6772Y-1.411
X5.6772Y-1.5094
X5.7756Y-1.2142
X5.7756Y-1.3126
X5.7756Y-1.411
X5.7756Y-1.5094
X5.874Y-1.2142
X5.874Y-1.3126
X5.874Y-1.411
X5.874Y-1.5094
X5.9724Y-1.2142
X5.9724Y-1.3126
X5.9724Y-1.411
X5.9724Y-1.5094
X6.0709Y-1.2142
X6.0709Y-1.3126
X6.0709Y-1.411
X6.0709Y-1.5094
X6.1693Y-1.2142
X6.1693Y-1.3126
X6.1693Y-1.411
X6.1693Y-1.5094
X6.8307Y-1.2142
X6.8307Y-1.3126
X6.8307Y-1.411
X6.8307Y-1.5094
X6.9291Y-1.2142
X6.9291Y-1.3126
X6.9291Y-1.411
X6.9291Y-1.5094
X7.0276Y-1.2142
X7.0276Y-1.3126
X7.0276Y-1.411
X7.0276Y-1.5094
X7.126Y-1.2142
X7.126Y-1.3126
X7.126Y-1.411
X7.126Y-1.5094
X7.2244Y-1.2142
X7.2244Y-1.3126
X7.2244Y-1.411
X7.2244Y-1.5094
X7.3228Y-1.2142
X7.3228Y-1.3126
X7.3228Y-1.411
X7.3228Y-1.5094
X7.4606Y-1.2142
X7.4606Y-1.3126
X7.4606Y-1.411
X7.4606Y-1.5094
X7.6063Y-1.2142
X7.6063Y-1.3126
X7.6063Y-1.411
X7.6063Y-1.5094
T9
X7.4395Y-1.9899
X7.4395Y-2.3804
X7.5734Y-1.9899
X7.5734Y-2.3804
T10
X2.9744Y-1.5488
X7.8484Y-1.5488
T11
X8.0929Y-3.4626
X8.0929Y-3.9366
T12
X2.8346Y-1.3972
X7.9882Y-1.3972
T0
M30
