%TF.GenerationSoftware,KiCad,Pcbnew,9.0.3*%
%TF.CreationDate,2025-10-28T00:12:23+00:00*%
%TF.ProjectId,Polygonus-Universal-Base,506f6c79-676f-46e7-9573-2d556e697665,rev?*%
%TF.SameCoordinates,Original*%
%TF.FileFunction,Profile,NP*%
%FSLAX46Y46*%
G04 Gerber Fmt 4.6, Leading zero omitted, Abs format (unit mm)*
G04 Created by KiCad (PCBNEW 9.0.3) date 2025-10-28 00:12:23*
%MOMM*%
%LPD*%
G01*
G04 APERTURE LIST*
%TA.AperFunction,Profile*%
%ADD10C,0.200000*%
%TD*%
%TA.AperFunction,Profile*%
%ADD11C,0.120000*%
%TD*%
G04 APERTURE END LIST*
D10*
X75753600Y-89560400D02*
G75*
G02*
X70753600Y-89560400I-2500000J0D01*
G01*
X70753600Y-89560400D02*
G75*
G02*
X75753600Y-89560400I2500000J0D01*
G01*
X211160000Y-144338000D02*
X217160000Y-138338000D01*
X213661827Y-135651551D02*
G75*
G02*
X210661827Y-135651551I-1500000J0D01*
G01*
X210661827Y-135651551D02*
G75*
G02*
X213661827Y-135651551I1500000J0D01*
G01*
X197673600Y-86004400D02*
G75*
G02*
X192673600Y-86004400I-2500000J0D01*
G01*
X192673600Y-86004400D02*
G75*
G02*
X197673600Y-86004400I2500000J0D01*
G01*
X211160000Y-144338000D02*
X63160000Y-144338000D01*
X57160000Y-37380000D02*
X57160000Y-138338000D01*
X63160000Y-144338000D02*
X57160000Y-138338000D01*
X217160000Y-50580000D02*
X217160000Y-87380000D01*
X217160000Y-37380000D02*
X217160000Y-50580000D01*
X57160000Y-37380000D02*
X71160244Y-23363126D01*
X65508000Y-105664000D02*
G75*
G02*
X62508000Y-105664000I-1500000J0D01*
G01*
X62508000Y-105664000D02*
G75*
G02*
X65508000Y-105664000I1500000J0D01*
G01*
X217160000Y-100580000D02*
X217160000Y-138338000D01*
X65609600Y-139520800D02*
G75*
G02*
X62609600Y-139520800I-1500000J0D01*
G01*
X62609600Y-139520800D02*
G75*
G02*
X65609600Y-139520800I1500000J0D01*
G01*
X217160000Y-87380000D02*
X217160000Y-100580000D01*
X188139200Y-136448800D02*
G75*
G02*
X185139200Y-136448800I-1500000J0D01*
G01*
X185139200Y-136448800D02*
G75*
G02*
X188139200Y-136448800I1500000J0D01*
G01*
X203160244Y-23363126D02*
X217160000Y-37380000D01*
X71160244Y-23363126D02*
X203160244Y-23363126D01*
%TO.C,U1*%
D11*
X192174349Y-140200815D02*
X197508349Y-140200815D01*
X197508349Y-132326815D01*
X192174349Y-132326815D01*
X192174349Y-140200815D01*
%TO.C,U2*%
X63516115Y-133487435D02*
X68850115Y-133487435D01*
X68850115Y-125613435D01*
X63516115Y-125613435D01*
X63516115Y-133487435D01*
%TD*%
M02*
