%TF.GenerationSoftware,KiCad,Pcbnew,8.0.5*%
%TF.CreationDate,2025-07-16T23:18:55+01:00*%
%TF.ProjectId,Polygonus-Universal-Base,506f6c79-676f-46e7-9573-2d556e697665,rev?*%
%TF.SameCoordinates,Original*%
%TF.FileFunction,Paste,Top*%
%TF.FilePolarity,Positive*%
%FSLAX46Y46*%
G04 Gerber Fmt 4.6, Leading zero omitted, Abs format (unit mm)*
G04 Created by KiCad (PCBNEW 8.0.5) date 2025-07-16 23:18:55*
%MOMM*%
%LPD*%
G01*
G04 APERTURE LIST*
G04 Aperture macros list*
%AMRoundRect*
0 Rectangle with rounded corners*
0 $1 Rounding radius*
0 $2 $3 $4 $5 $6 $7 $8 $9 X,Y pos of 4 corners*
0 Add a 4 corners polygon primitive as box body*
4,1,4,$2,$3,$4,$5,$6,$7,$8,$9,$2,$3,0*
0 Add four circle primitives for the rounded corners*
1,1,$1+$1,$2,$3*
1,1,$1+$1,$4,$5*
1,1,$1+$1,$6,$7*
1,1,$1+$1,$8,$9*
0 Add four rect primitives between the rounded corners*
20,1,$1+$1,$2,$3,$4,$5,0*
20,1,$1+$1,$4,$5,$6,$7,0*
20,1,$1+$1,$6,$7,$8,$9,0*
20,1,$1+$1,$8,$9,$2,$3,0*%
G04 Aperture macros list end*
%ADD10RoundRect,0.250000X-0.337500X-0.475000X0.337500X-0.475000X0.337500X0.475000X-0.337500X0.475000X0*%
%ADD11RoundRect,0.250000X-0.650000X1.000000X-0.650000X-1.000000X0.650000X-1.000000X0.650000X1.000000X0*%
%ADD12R,0.500000X0.800000*%
%ADD13R,0.400000X0.800000*%
%ADD14RoundRect,0.250000X0.350000X-0.850000X0.350000X0.850000X-0.350000X0.850000X-0.350000X-0.850000X0*%
%ADD15RoundRect,0.250000X1.125000X-1.275000X1.125000X1.275000X-1.125000X1.275000X-1.125000X-1.275000X0*%
%ADD16R,2.000000X1.500000*%
%ADD17R,2.000000X3.800000*%
%ADD18RoundRect,0.135000X0.185000X-0.135000X0.185000X0.135000X-0.185000X0.135000X-0.185000X-0.135000X0*%
%ADD19RoundRect,0.150000X-0.825000X-0.150000X0.825000X-0.150000X0.825000X0.150000X-0.825000X0.150000X0*%
%ADD20RoundRect,0.150000X0.150000X-0.825000X0.150000X0.825000X-0.150000X0.825000X-0.150000X-0.825000X0*%
%ADD21R,0.800000X0.500000*%
%ADD22R,0.800000X0.400000*%
%ADD23RoundRect,0.250000X0.450000X-0.262500X0.450000X0.262500X-0.450000X0.262500X-0.450000X-0.262500X0*%
%ADD24RoundRect,0.140000X-0.170000X0.140000X-0.170000X-0.140000X0.170000X-0.140000X0.170000X0.140000X0*%
%ADD25RoundRect,0.135000X-0.135000X-0.185000X0.135000X-0.185000X0.135000X0.185000X-0.135000X0.185000X0*%
%ADD26RoundRect,0.250000X0.250000X0.475000X-0.250000X0.475000X-0.250000X-0.475000X0.250000X-0.475000X0*%
%ADD27RoundRect,0.218750X-0.218750X-0.256250X0.218750X-0.256250X0.218750X0.256250X-0.218750X0.256250X0*%
%ADD28RoundRect,0.250000X-0.250000X-0.475000X0.250000X-0.475000X0.250000X0.475000X-0.250000X0.475000X0*%
%ADD29RoundRect,0.135000X0.135000X0.185000X-0.135000X0.185000X-0.135000X-0.185000X0.135000X-0.185000X0*%
%ADD30RoundRect,0.135000X-0.185000X0.135000X-0.185000X-0.135000X0.185000X-0.135000X0.185000X0.135000X0*%
%ADD31RoundRect,0.250000X-1.000000X-0.650000X1.000000X-0.650000X1.000000X0.650000X-1.000000X0.650000X0*%
%ADD32R,0.300000X1.400000*%
%ADD33RoundRect,0.250000X-0.262500X-0.450000X0.262500X-0.450000X0.262500X0.450000X-0.262500X0.450000X0*%
%ADD34RoundRect,0.140000X0.170000X-0.140000X0.170000X0.140000X-0.170000X0.140000X-0.170000X-0.140000X0*%
%ADD35R,1.950000X1.160000*%
%ADD36R,2.000000X0.650000*%
%ADD37RoundRect,0.250000X0.262500X0.450000X-0.262500X0.450000X-0.262500X-0.450000X0.262500X-0.450000X0*%
%ADD38RoundRect,0.250000X0.625000X-0.312500X0.625000X0.312500X-0.625000X0.312500X-0.625000X-0.312500X0*%
%ADD39RoundRect,0.250000X-0.350000X-0.450000X0.350000X-0.450000X0.350000X0.450000X-0.350000X0.450000X0*%
%ADD40RoundRect,0.150000X-0.512500X-0.150000X0.512500X-0.150000X0.512500X0.150000X-0.512500X0.150000X0*%
%ADD41R,0.400000X0.650000*%
%ADD42RoundRect,0.140000X0.140000X0.170000X-0.140000X0.170000X-0.140000X-0.170000X0.140000X-0.170000X0*%
%ADD43RoundRect,0.250000X-0.312500X-0.625000X0.312500X-0.625000X0.312500X0.625000X-0.312500X0.625000X0*%
%ADD44RoundRect,0.150000X0.587500X0.150000X-0.587500X0.150000X-0.587500X-0.150000X0.587500X-0.150000X0*%
%ADD45RoundRect,0.250000X-0.450000X0.262500X-0.450000X-0.262500X0.450000X-0.262500X0.450000X0.262500X0*%
%ADD46RoundRect,0.250000X-0.475000X0.250000X-0.475000X-0.250000X0.475000X-0.250000X0.475000X0.250000X0*%
%ADD47RoundRect,0.150000X-0.587500X-0.150000X0.587500X-0.150000X0.587500X0.150000X-0.587500X0.150000X0*%
%ADD48RoundRect,0.250000X0.650000X-0.325000X0.650000X0.325000X-0.650000X0.325000X-0.650000X-0.325000X0*%
%ADD49RoundRect,0.250000X0.475000X-0.250000X0.475000X0.250000X-0.475000X0.250000X-0.475000X-0.250000X0*%
%ADD50RoundRect,0.140000X-0.140000X-0.170000X0.140000X-0.170000X0.140000X0.170000X-0.140000X0.170000X0*%
%ADD51RoundRect,0.150000X0.825000X0.150000X-0.825000X0.150000X-0.825000X-0.150000X0.825000X-0.150000X0*%
%ADD52RoundRect,0.100000X-0.637500X-0.100000X0.637500X-0.100000X0.637500X0.100000X-0.637500X0.100000X0*%
G04 APERTURE END LIST*
D10*
%TO.C,C25*%
X135262500Y-63640000D03*
X137337500Y-63640000D03*
%TD*%
D11*
%TO.C,D2*%
X201800000Y-76640000D03*
X201800000Y-80640000D03*
%TD*%
D12*
%TO.C,RN3*%
X76000000Y-80240000D03*
D13*
X75200000Y-80240000D03*
X74400000Y-80240000D03*
D12*
X73600000Y-80240000D03*
X73600000Y-82040000D03*
D13*
X74400000Y-82040000D03*
X75200000Y-82040000D03*
D12*
X76000000Y-82040000D03*
%TD*%
D14*
%TO.C,Q2*%
X163337124Y-55140737D03*
D15*
X164092124Y-50515737D03*
X167142124Y-50515737D03*
X164092124Y-47165737D03*
X167142124Y-47165737D03*
D14*
X167897124Y-55140737D03*
%TD*%
D16*
%TO.C,U17*%
X65154476Y-59831561D03*
X65154476Y-62131561D03*
X65154476Y-64431561D03*
D17*
X71454476Y-62131561D03*
%TD*%
D18*
%TO.C,R24*%
X102694607Y-105039580D03*
X102694607Y-104019580D03*
%TD*%
D19*
%TO.C,U21*%
X73006624Y-138366545D03*
X73006624Y-139636545D03*
X73006624Y-140906545D03*
X73006624Y-142176545D03*
X77956624Y-142176545D03*
X77956624Y-140906545D03*
X77956624Y-139636545D03*
X77956624Y-138366545D03*
%TD*%
D20*
%TO.C,U5*%
X103772815Y-95640995D03*
X105042815Y-95640995D03*
X106312815Y-95640995D03*
X107582815Y-95640995D03*
X108852815Y-95640995D03*
X110122815Y-95640995D03*
X111392815Y-95640995D03*
X111392815Y-90690995D03*
X110122815Y-90690995D03*
X108852815Y-90690995D03*
X107582815Y-90690995D03*
X106312815Y-90690995D03*
X105042815Y-90690995D03*
X103772815Y-90690995D03*
%TD*%
D21*
%TO.C,RN2*%
X188862544Y-69273813D03*
D22*
X188862544Y-70073813D03*
X188862544Y-70873813D03*
D21*
X188862544Y-71673813D03*
X190662544Y-71673813D03*
D22*
X190662544Y-70873813D03*
X190662544Y-70073813D03*
D21*
X190662544Y-69273813D03*
%TD*%
D23*
%TO.C,R35*%
X121703685Y-52996521D03*
X121703685Y-51171521D03*
%TD*%
D24*
%TO.C,C22*%
X111753915Y-103277947D03*
X111753915Y-104237947D03*
%TD*%
D16*
%TO.C,U16*%
X65191189Y-52405741D03*
X65191189Y-54705741D03*
X65191189Y-57005741D03*
D17*
X71491189Y-54705741D03*
%TD*%
D25*
%TO.C,R11*%
X102652406Y-110402584D03*
X103672406Y-110402584D03*
%TD*%
D26*
%TO.C,C36*%
X69212465Y-142838958D03*
X67312465Y-142838958D03*
%TD*%
D27*
%TO.C,D1*%
X100384057Y-95641065D03*
X101959057Y-95641065D03*
%TD*%
D25*
%TO.C,R12*%
X107991506Y-110453400D03*
X109011506Y-110453400D03*
%TD*%
D16*
%TO.C,U13*%
X211338488Y-58550546D03*
X211338488Y-56250546D03*
X211338488Y-53950546D03*
D17*
X205038488Y-56250546D03*
%TD*%
D26*
%TO.C,C27*%
X125032661Y-42835627D03*
X123132661Y-42835627D03*
%TD*%
D28*
%TO.C,C32*%
X177805526Y-136340000D03*
X179705526Y-136340000D03*
%TD*%
D16*
%TO.C,U14*%
X211155466Y-66786559D03*
X211155466Y-64486559D03*
X211155466Y-62186559D03*
D17*
X204855466Y-64486559D03*
%TD*%
D26*
%TO.C,C33*%
X82768167Y-137563839D03*
X80868167Y-137563839D03*
%TD*%
D16*
%TO.C,U19*%
X65154476Y-67355819D03*
X65154476Y-69655819D03*
X65154476Y-71955819D03*
D17*
X71454476Y-69655819D03*
%TD*%
D29*
%TO.C,R19*%
X110603170Y-103677567D03*
X109583170Y-103677567D03*
%TD*%
D30*
%TO.C,R23*%
X99963884Y-106309931D03*
X99963884Y-107329931D03*
%TD*%
D31*
%TO.C,D6*%
X68900000Y-49240000D03*
X72900000Y-49240000D03*
%TD*%
D11*
%TO.C,D8*%
X74500000Y-65040000D03*
X74500000Y-69040000D03*
%TD*%
D23*
%TO.C,R28*%
X136156488Y-47086808D03*
X136156488Y-45261808D03*
%TD*%
D26*
%TO.C,C30*%
X175022461Y-137038591D03*
X173122461Y-137038591D03*
%TD*%
D14*
%TO.C,Q7*%
X153420000Y-72380000D03*
D15*
X154175000Y-67755000D03*
X157225000Y-67755000D03*
X154175000Y-64405000D03*
X157225000Y-64405000D03*
D14*
X157980000Y-72380000D03*
%TD*%
D28*
%TO.C,C34*%
X80284731Y-143131829D03*
X82184731Y-143131829D03*
%TD*%
%TO.C,C29*%
X170877796Y-143031045D03*
X172777796Y-143031045D03*
%TD*%
D32*
%TO.C,U10*%
X134811353Y-53880996D03*
X134311353Y-53880996D03*
X133811353Y-53880996D03*
X133311353Y-53880996D03*
X132811353Y-53880996D03*
X132811353Y-58280996D03*
X133311353Y-58280996D03*
X133811353Y-58280996D03*
X134311353Y-58280996D03*
X134811353Y-58280996D03*
%TD*%
D23*
%TO.C,R27*%
X134142220Y-47096793D03*
X134142220Y-45271793D03*
%TD*%
D16*
%TO.C,U11*%
X211155466Y-82984051D03*
X211155466Y-80684051D03*
X211155466Y-78384051D03*
D17*
X204855466Y-80684051D03*
%TD*%
D29*
%TO.C,R15*%
X106958279Y-110441734D03*
X105938279Y-110441734D03*
%TD*%
D33*
%TO.C,R2*%
X166846916Y-107749289D03*
X168671916Y-107749289D03*
%TD*%
D21*
%TO.C,RN4*%
X75458314Y-74539005D03*
D22*
X75458314Y-73739005D03*
X75458314Y-72939005D03*
D21*
X75458314Y-72139005D03*
X73658314Y-72139005D03*
D22*
X73658314Y-72939005D03*
X73658314Y-73739005D03*
D21*
X73658314Y-74539005D03*
%TD*%
D34*
%TO.C,C15*%
X107851547Y-99715769D03*
X107851547Y-98755769D03*
%TD*%
D25*
%TO.C,R22*%
X99550669Y-105224359D03*
X100570669Y-105224359D03*
%TD*%
D35*
%TO.C,U15*%
X116862906Y-48328604D03*
X116862906Y-46868604D03*
X116862906Y-45408604D03*
X116862906Y-43948604D03*
X116862906Y-42488604D03*
X114612906Y-48328604D03*
X114612906Y-46868604D03*
X114612906Y-45408604D03*
X114612906Y-43948604D03*
X114612906Y-42488604D03*
D36*
X120537906Y-47908604D03*
X120537906Y-46908604D03*
X120537906Y-45908604D03*
X120537906Y-44908604D03*
X120537906Y-43908604D03*
X120537906Y-42908604D03*
X110937906Y-42908604D03*
X110937906Y-43908604D03*
X110937906Y-44908604D03*
X110937906Y-45908604D03*
X110937906Y-46908604D03*
X110937906Y-47908604D03*
%TD*%
D37*
%TO.C,R29*%
X135421872Y-48964572D03*
X133596872Y-48964572D03*
%TD*%
D16*
%TO.C,U18*%
X65127619Y-75332820D03*
X65127619Y-77632820D03*
X65127619Y-79932820D03*
D17*
X71427619Y-77632820D03*
%TD*%
D38*
%TO.C,R36*%
X175014418Y-142128630D03*
X175014418Y-139203630D03*
%TD*%
D39*
%TO.C,R32*%
X129809704Y-51520545D03*
X131809704Y-51520545D03*
%TD*%
D14*
%TO.C,Q8*%
X144420000Y-72342005D03*
D15*
X145175000Y-67717005D03*
X148225000Y-67717005D03*
X145175000Y-64367005D03*
X148225000Y-64367005D03*
D14*
X148980000Y-72342005D03*
%TD*%
D24*
%TO.C,C18*%
X101158839Y-90784460D03*
X101158839Y-91744460D03*
%TD*%
D23*
%TO.C,R5*%
X101340513Y-53094840D03*
X101340513Y-51269840D03*
%TD*%
D40*
%TO.C,U4*%
X97720254Y-109163333D03*
X97720254Y-110113333D03*
X97720254Y-111063333D03*
X99995254Y-111063333D03*
X99995254Y-110113333D03*
X99995254Y-109163333D03*
%TD*%
D41*
%TO.C,U8*%
X97506000Y-101473000D03*
X98156000Y-101473000D03*
X98806000Y-101473000D03*
X98806000Y-99573000D03*
X98156000Y-99573000D03*
X97506000Y-99573000D03*
%TD*%
D42*
%TO.C,C7*%
X108969840Y-111550010D03*
X108009840Y-111550010D03*
%TD*%
D16*
%TO.C,U12*%
X211155466Y-74748038D03*
X211155466Y-72448038D03*
X211155466Y-70148038D03*
D17*
X204855466Y-72448038D03*
%TD*%
D23*
%TO.C,R8*%
X93328736Y-110787347D03*
X93328736Y-108962347D03*
%TD*%
D24*
%TO.C,C20*%
X99154135Y-103003922D03*
X99154135Y-103963922D03*
%TD*%
%TO.C,C16*%
X102278781Y-90761128D03*
X102278781Y-91721128D03*
%TD*%
D23*
%TO.C,R4*%
X137316345Y-135636620D03*
X137316345Y-133811620D03*
%TD*%
D37*
%TO.C,R1*%
X168584105Y-105177683D03*
X166759105Y-105177683D03*
%TD*%
D43*
%TO.C,R37*%
X80155250Y-140550045D03*
X83080250Y-140550045D03*
%TD*%
D24*
%TO.C,C10*%
X96901000Y-103025000D03*
X96901000Y-103985000D03*
%TD*%
D28*
%TO.C,C24*%
X135350000Y-61140000D03*
X137250000Y-61140000D03*
%TD*%
D44*
%TO.C,D10*%
X172464671Y-141014880D03*
X172464671Y-139114880D03*
X170589671Y-140064880D03*
%TD*%
D39*
%TO.C,R33*%
X131000000Y-61140000D03*
X133000000Y-61140000D03*
%TD*%
D45*
%TO.C,R30*%
X136700000Y-56627500D03*
X136700000Y-58452500D03*
%TD*%
D19*
%TO.C,U7*%
X101008268Y-98873572D03*
X101008268Y-100143572D03*
X101008268Y-101413572D03*
X101008268Y-102683572D03*
X105958268Y-102683572D03*
X105958268Y-101413572D03*
X105958268Y-100143572D03*
X105958268Y-98873572D03*
%TD*%
D18*
%TO.C,R16*%
X98044000Y-104015000D03*
X98044000Y-102995000D03*
%TD*%
D11*
%TO.C,D3*%
X201800000Y-68440000D03*
X201800000Y-72440000D03*
%TD*%
D46*
%TO.C,C5*%
X91623348Y-43390000D03*
X91623348Y-45290000D03*
%TD*%
D47*
%TO.C,D11*%
X85069372Y-141504002D03*
X85069372Y-143404002D03*
X86944372Y-142454002D03*
%TD*%
D48*
%TO.C,C3*%
X106562042Y-49339600D03*
X106562042Y-46389600D03*
%TD*%
D14*
%TO.C,Q5*%
X170420000Y-72380000D03*
D15*
X171175000Y-67755000D03*
X174225000Y-67755000D03*
X171175000Y-64405000D03*
X174225000Y-64405000D03*
D14*
X174980000Y-72380000D03*
%TD*%
D49*
%TO.C,C35*%
X69993202Y-140080574D03*
X69993202Y-138180574D03*
%TD*%
D42*
%TO.C,C11*%
X103950231Y-97512576D03*
X102990231Y-97512576D03*
%TD*%
D25*
%TO.C,R21*%
X108147741Y-97543685D03*
X109167741Y-97543685D03*
%TD*%
D24*
%TO.C,C13*%
X108584360Y-102738701D03*
X108584360Y-103698701D03*
%TD*%
D30*
%TO.C,R18*%
X111786259Y-105229532D03*
X111786259Y-106249532D03*
%TD*%
D50*
%TO.C,C12*%
X110146538Y-97520079D03*
X111106538Y-97520079D03*
%TD*%
D30*
%TO.C,R9*%
X110134755Y-110480039D03*
X110134755Y-111500039D03*
%TD*%
D25*
%TO.C,R6*%
X97915000Y-95631000D03*
X98935000Y-95631000D03*
%TD*%
D51*
%TO.C,U20*%
X182760593Y-142478446D03*
X182760593Y-141208446D03*
X182760593Y-139938446D03*
X182760593Y-138668446D03*
X177810593Y-138668446D03*
X177810593Y-139938446D03*
X177810593Y-141208446D03*
X177810593Y-142478446D03*
%TD*%
D25*
%TO.C,R13*%
X102731362Y-111507528D03*
X103751362Y-111507528D03*
%TD*%
D11*
%TO.C,D4*%
X201800000Y-60540000D03*
X201800000Y-64540000D03*
%TD*%
D14*
%TO.C,Q6*%
X161420000Y-72380000D03*
D15*
X162175000Y-67755000D03*
X165225000Y-67755000D03*
X162175000Y-64405000D03*
X165225000Y-64405000D03*
D14*
X165980000Y-72380000D03*
%TD*%
D31*
%TO.C,D9*%
X66400000Y-83740000D03*
X70400000Y-83740000D03*
%TD*%
D34*
%TO.C,C9*%
X104884343Y-111504719D03*
X104884343Y-110544719D03*
%TD*%
D14*
%TO.C,Q4*%
X145922936Y-55440022D03*
D15*
X146677936Y-50815022D03*
X149727936Y-50815022D03*
X146677936Y-47465022D03*
X149727936Y-47465022D03*
D14*
X150482936Y-55440022D03*
%TD*%
D34*
%TO.C,C14*%
X101591948Y-105251543D03*
X101591948Y-104291543D03*
%TD*%
D23*
%TO.C,R25*%
X134632173Y-43509301D03*
X134632173Y-41684301D03*
%TD*%
D28*
%TO.C,C31*%
X185107368Y-142389712D03*
X187007368Y-142389712D03*
%TD*%
D23*
%TO.C,R3*%
X139749110Y-135636620D03*
X139749110Y-133811620D03*
%TD*%
D11*
%TO.C,D7*%
X74600000Y-57840000D03*
X74600000Y-61840000D03*
%TD*%
D49*
%TO.C,C28*%
X108579658Y-43118935D03*
X108579658Y-41218935D03*
%TD*%
D42*
%TO.C,C8*%
X106939945Y-111515012D03*
X105979945Y-111515012D03*
%TD*%
D21*
%TO.C,RN1*%
X186551050Y-71602925D03*
D22*
X186551050Y-70802925D03*
X186551050Y-70002925D03*
D21*
X186551050Y-69202925D03*
X184751050Y-69202925D03*
D22*
X184751050Y-70002925D03*
X184751050Y-70802925D03*
D21*
X184751050Y-71602925D03*
%TD*%
D24*
%TO.C,C19*%
X102094885Y-106391780D03*
X102094885Y-107351780D03*
%TD*%
D14*
%TO.C,Q3*%
X154852819Y-55247290D03*
D15*
X155607819Y-50622290D03*
X158657819Y-50622290D03*
X155607819Y-47272290D03*
X158657819Y-47272290D03*
D14*
X159412819Y-55247290D03*
%TD*%
D35*
%TO.C,U3*%
X100002537Y-48516167D03*
X100002537Y-47056167D03*
X100002537Y-45596167D03*
X100002537Y-44136167D03*
X100002537Y-42676167D03*
X97752537Y-48516167D03*
X97752537Y-47056167D03*
X97752537Y-45596167D03*
X97752537Y-44136167D03*
X97752537Y-42676167D03*
D36*
X103677537Y-48096167D03*
X103677537Y-47096167D03*
X103677537Y-46096167D03*
X103677537Y-45096167D03*
X103677537Y-44096167D03*
X103677537Y-43096167D03*
X94077537Y-43096167D03*
X94077537Y-44096167D03*
X94077537Y-45096167D03*
X94077537Y-46096167D03*
X94077537Y-47096167D03*
X94077537Y-48096167D03*
%TD*%
D49*
%TO.C,C1*%
X135157194Y-135666133D03*
X135157194Y-133766133D03*
%TD*%
D52*
%TO.C,U6*%
X104314536Y-105075641D03*
X104314536Y-105725641D03*
X104314536Y-106375641D03*
X104314536Y-107025641D03*
X104314536Y-107675641D03*
X104314536Y-108325641D03*
X104314536Y-108975641D03*
X110039536Y-108975641D03*
X110039536Y-108325641D03*
X110039536Y-107675641D03*
X110039536Y-107025641D03*
X110039536Y-106375641D03*
X110039536Y-105725641D03*
X110039536Y-105075641D03*
%TD*%
D34*
%TO.C,C17*%
X108862606Y-99723546D03*
X108862606Y-98763546D03*
%TD*%
D11*
%TO.C,D5*%
X201900000Y-52240000D03*
X201900000Y-56240000D03*
%TD*%
D24*
%TO.C,C21*%
X101042347Y-106396965D03*
X101042347Y-107356965D03*
%TD*%
D45*
%TO.C,R7*%
X95492320Y-108906871D03*
X95492320Y-110731871D03*
%TD*%
D23*
%TO.C,R26*%
X136615925Y-43481749D03*
X136615925Y-41656749D03*
%TD*%
D28*
%TO.C,C23*%
X133559372Y-51041904D03*
X135459372Y-51041904D03*
%TD*%
D49*
%TO.C,C4*%
X106612595Y-44416468D03*
X106612595Y-42516468D03*
%TD*%
D24*
%TO.C,C6*%
X101531149Y-110419946D03*
X101531149Y-111379946D03*
%TD*%
D45*
%TO.C,R31*%
X136767835Y-52882467D03*
X136767835Y-54707467D03*
%TD*%
D30*
%TO.C,R10*%
X101545284Y-108404638D03*
X101545284Y-109424638D03*
%TD*%
%TO.C,R17*%
X111786259Y-107271094D03*
X111786259Y-108291094D03*
%TD*%
D18*
%TO.C,R14*%
X102660041Y-109388344D03*
X102660041Y-108368344D03*
%TD*%
D48*
%TO.C,C26*%
X125200007Y-47969022D03*
X125200007Y-45019022D03*
%TD*%
D29*
%TO.C,R20*%
X105971239Y-97497021D03*
X104951239Y-97497021D03*
%TD*%
D41*
%TO.C,U9*%
X110205506Y-101814105D03*
X110855506Y-101814105D03*
X111505506Y-101814105D03*
X111505506Y-99914105D03*
X110855506Y-99914105D03*
X110205506Y-99914105D03*
%TD*%
D45*
%TO.C,R34*%
X127720250Y-51342152D03*
X127720250Y-53167152D03*
%TD*%
D14*
%TO.C,Q1*%
X172371404Y-55213011D03*
D15*
X173126404Y-50588011D03*
X176176404Y-50588011D03*
X173126404Y-47238011D03*
X176176404Y-47238011D03*
D14*
X176931404Y-55213011D03*
%TD*%
M02*
